<svg xmlns="http://www.w3.org/2000/svg" viewBox="0 0 512 512">
  <defs>
    <linearGradient id="bg" x1="0%" y1="0%" x2="100%" y2="100%">
      <stop offset="0%" stop-color="#1e1b2e"/>
      <stop offset="50%" stop-color="#151225"/>
      <stop offset="100%" stop-color="#0f0b1a"/>
    </linearGradient>
    <linearGradient id="seed-body" x1="0%" y1="0%" x2="100%" y2="100%">
      <stop offset="0%" stop-color="#fcd34d"/>
      <stop offset="35%" stop-color="#fbbf24"/>
      <stop offset="70%" stop-color="#f59e0b"/>
      <stop offset="100%" stop-color="#b45309"/>
    </linearGradient>
    <radialGradient id="seed-glow" cx="40%" cy="30%" r="60%">
      <stop offset="0%" stop-color="rgba(255,255,255,0.35)"/>
      <stop offset="100%" stop-color="rgba(255,255,255,0)"/>
    </radialGradient>
    <filter id="shadow" x="-10%" y="-10%" width="120%" height="120%">
      <feDropShadow dx="0" dy="4" stdDeviation="8" flood-color="#000" flood-opacity="0.4"/>
    </filter>
  </defs>
  <rect width="512" height="512" rx="96" fill="url(#bg)"/>
  <g transform="translate(256,256)" filter="url(#shadow)">
    <path d="
      M 0,-140
      C 30,-140 55,-115 60,-85
      C 65,-55 50,-30 30,-15
      C 50,0 65,25 60,55
      C 55,85 30,110 0,110
      C -30,110 -55,85 -60,55
      C -65,25 -50,0 -30,-15
      C -50,-30 -65,-55 -60,-85
      C -55,-115 -30,-140 0,-140 Z
    " fill="url(#seed-body)"/>
    <path d="
      M 0,-130
      C 30,-130 50,-110 55,-80
      C 60,-50 45,-25 25,-10
      C 45,5 60,30 55,60
      C 50,90 30,110 0,110
      C -30,110 -50,90 -55,60
      C -60,30 -45,5 -25,-10
      C -45,-25 -60,-50 -55,-80
      C -50,-110 -30,-130 0,-130 Z
    " fill="url(#seed-glow)"/>
    <path d="M 0,-40 L 0,40" stroke="#92400e" stroke-width="3" stroke-linecap="round" opacity="0.3"/>
    <path d="M -40,0 L 40,0" stroke="#92400e" stroke-width="3" stroke-linecap="round" opacity="0.15"/>
    <circle cx="0" cy="-60" r="8" fill="rgba(255,255,255,0.3)"/>
    <circle cx="0" cy="-60" r="4" fill="rgba(255,255,255,0.5)"/>
  </g>
</svg>
